<?xml version="1.0" encoding="UTF-8"?>
<svg version="1.1" xmlns="http://www.w3.org/2000/svg" width="512" height="512">
<path d="M0 0 C1.26457031 -0.05994141 1.26457031 -0.05994141 2.5546875 -0.12109375 C7.11234509 0.86940022 9.1622783 3.96167937 11.59130859 7.68530273 C13.22898685 10.39214282 14.80793433 13.12670451 16.375 15.875 C17.526873 17.85519898 18.68052132 19.83436632 19.8359375 21.8125 C20.39635742 22.77414063 20.95677734 23.73578125 21.53417969 24.7265625 C30.15629748 39.41962512 38.23817791 51.44460043 55.64453125 56.11328125 C58.67297326 56.50912485 61.63283785 56.68397204 64.6875 56.75 C65.80253906 56.78738281 66.91757812 56.82476562 68.06640625 56.86328125 C79.38316498 56.19981968 89.45616146 49.83584434 99.0625 44.375 C100.36211172 43.64686027 101.66223997 42.91964166 102.96289062 42.19335938 C109.45558973 38.56645491 109.45558973 38.56645491 115.84594727 34.76391602 C118.7392485 33.0800054 120.77207327 32.57161707 124.125 32.4375 C127.8125 33.4375 127.8125 33.4375 131.125 35.4375 C134.19194357 40.97162334 134.55357562 45.64309843 134.53125 51.88671875 C134.54208618 52.78058792 134.55292236 53.67445709 134.56408691 54.59541321 C134.59816197 57.43868252 134.61388996 60.28155408 134.625 63.125 C134.64182095 88.20736212 134.64182095 88.20736212 147.0078125 109.50390625 C156.98625101 118.85616744 168.62743926 121.71257469 181.9453125 121.74609375 C183.79818049 121.77123472 185.651045 121.796633 187.50390625 121.82226562 C190.38492057 121.85104134 193.26587503 121.87510302 196.14697266 121.89379883 C198.95504534 121.91551688 201.76246716 121.95493252 204.5703125 121.99609375 C205.85181686 121.99626747 205.85181686 121.99626747 207.15921021 121.9964447 C212.53883032 122.08489301 216.38324467 122.82300501 221.125 125.4375 C223.60755696 129.27417894 224.28369381 131.37675719 223.60546875 135.91015625 C221.93287948 141.98968514 218.52588847 147.27760678 215.375 152.6875 C201.02299176 176.56683993 201.02299176 176.56683993 201.25 203.6875 C206.38622384 218.30413701 215.91704211 225.68606354 228.84033203 233.12060547 C233.16209104 235.6116899 237.45769687 238.14610261 241.75 240.6875 C243.02943481 241.43036255 243.02943481 241.43036255 244.3347168 242.18823242 C255.40888027 248.74151985 255.40888027 248.74151985 256.7890625 253.9375 C256.77617188 254.7625 256.76328125 255.5875 256.75 256.4375 C256.76289062 257.2625 256.77578125 258.0875 256.7890625 258.9375 C255.35861346 264.32271992 250.82858482 266.72483098 246.31640625 269.453125 C244.44386235 270.53776427 242.56736928 271.61560703 240.6875 272.6875 C238.70730102 273.839373 236.72813368 274.99302132 234.75 276.1484375 C233.78835938 276.70885742 232.82671875 277.26927734 231.8359375 277.84667969 C217.14287488 286.46879748 205.11789957 294.55067791 200.44921875 311.95703125 C200.05337515 314.98547326 199.87852796 317.94533785 199.8125 321 C199.77511719 322.11503906 199.73773438 323.23007812 199.69921875 324.37890625 C200.32768247 335.28965649 206.31807676 345.01615897 211.625 354.25 C212.29653129 355.43630697 212.96710842 356.62315457 213.63671875 357.81054688 C215.88802393 361.78965015 218.14857735 365.76286236 220.45141602 369.71240234 C222.58601827 373.37955189 224.03515871 376.12511818 224.125 380.4375 C223.125 384.125 223.125 384.125 221.125 387.4375 C215.53504121 390.55120908 210.80272225 390.85359068 204.4921875 390.80859375 C202.61458162 390.825988 200.73697749 390.84357224 198.859375 390.86132812 C195.93713947 390.87134582 193.01502534 390.87500883 190.09277344 390.87329102 C173.16781543 390.8947985 159.34388135 391.95995442 146.3515625 404.09375 C137.39014569 413.7375082 134.84852947 425.49453736 134.81640625 438.2578125 C134.79126528 440.11068049 134.765867 441.963545 134.74023438 443.81640625 C134.71145866 446.69742057 134.68739698 449.57837503 134.66870117 452.45947266 C134.64698312 455.26754534 134.60756748 458.07496716 134.56640625 460.8828125 C134.56629044 461.73714874 134.56617462 462.59148499 134.5660553 463.47171021 C134.47760699 468.85133032 133.73949499 472.69574467 131.125 477.4375 C127.28832106 479.92005696 125.18574281 480.59619381 120.65234375 479.91796875 C114.57281486 478.24537948 109.28489322 474.83838847 103.875 471.6875 C79.99566007 457.33549176 79.99566007 457.33549176 52.875 457.5625 C38.61622053 462.57297423 31.03814782 471.83913139 23.6875 484.5625 C22.37137242 486.79573717 21.05496876 489.02881166 19.73828125 491.26171875 C19.11518066 492.32696777 18.49208008 493.3922168 17.85009766 494.48974609 C15.71737232 498.13403221 13.56358328 501.76402539 11.375 505.375 C10.80265625 506.33277344 10.2303125 507.29054688 9.640625 508.27734375 C8.125 510.4375 8.125 510.4375 5.125 512.4375 C2.8203125 512.80859375 2.8203125 512.80859375 0.25 512.875 C-0.59304687 512.91496094 -1.43609375 512.95492187 -2.3046875 512.99609375 C-6.96914831 511.98238874 -9.3756744 508.20165794 -11.89208984 504.35058594 C-12.53355957 503.21911133 -13.1750293 502.08763672 -13.8359375 500.921875 C-14.18959381 500.3066095 -14.54325012 499.69134399 -14.90762329 499.05743408 C-16.0293495 497.10501813 -17.14077176 495.14703977 -18.25 493.1875 C-27.06614479 477.63302429 -35.28707276 463.79965006 -52.875 457.4375 C-56.73607793 456.45977543 -60.45948001 456.21098678 -64.4375 456.125 C-65.55253906 456.08761719 -66.66757813 456.05023438 -67.81640625 456.01171875 C-79.13316498 456.67518032 -89.20616146 463.03915566 -98.8125 468.5 C-100.11211172 469.22813973 -101.41223997 469.95535834 -102.71289062 470.68164062 C-109.20558973 474.30854509 -109.20558973 474.30854509 -115.59594727 478.11108398 C-118.4892485 479.7949946 -120.52207327 480.30338293 -123.875 480.4375 C-127.5625 479.4375 -127.5625 479.4375 -130.875 477.4375 C-133.94194357 471.90337666 -134.30357562 467.23190157 -134.28125 460.98828125 C-134.29208618 460.09441208 -134.30292236 459.20054291 -134.31408691 458.27958679 C-134.34816197 455.43631748 -134.36388996 452.59344592 -134.375 449.75 C-134.39182095 424.66763788 -134.39182095 424.66763788 -146.7578125 403.37109375 C-156.45329549 394.28403176 -167.84055739 391.16055811 -180.81640625 391.12890625 C-182.71810221 391.10376032 -184.61979485 391.0783621 -186.52148438 391.05273438 C-189.48591343 391.0239726 -192.4502852 390.99991927 -195.41479492 390.98120117 C-198.29895039 390.95948349 -201.18247203 390.92006071 -204.06640625 390.87890625 C-204.94575333 390.87879044 -205.8251004 390.87867462 -206.73109436 390.8785553 C-212.17624304 390.7915236 -216.08025732 390.09512188 -220.875 387.4375 C-223.35755696 383.60082106 -224.03369381 381.49824281 -223.35546875 376.96484375 C-221.68287948 370.88531486 -218.27588847 365.59739322 -215.125 360.1875 C-200.77299176 336.30816007 -200.77299176 336.30816007 -201 309.1875 C-205.5009971 296.37858768 -213.62203536 288.28874614 -225.1875 281.6875 C-226.95216276 280.6529232 -228.71647768 279.6177529 -230.48046875 278.58203125 C-231.81730713 277.80400146 -231.81730713 277.80400146 -233.18115234 277.01025391 C-237.47673736 274.5023548 -241.74268455 271.94719141 -246 269.375 C-246.76352783 268.9222168 -247.52705566 268.46943359 -248.3137207 268.00292969 C-249.017146 267.57786133 -249.72057129 267.15279297 -250.4453125 266.71484375 C-251.06164551 266.34609131 -251.67797852 265.97733887 -252.31298828 265.59741211 C-254.70315479 263.82253229 -255.77593452 262.0527488 -256.24609375 259.1328125 C-256.26800781 258.28460938 -256.28992188 257.43640625 -256.3125 256.5625 C-256.35246094 255.71945313 -256.39242188 254.87640625 -256.43359375 254.0078125 C-255.41988874 249.34335169 -251.63915794 246.9368256 -247.78808594 244.42041016 C-246.65661133 243.77894043 -245.52513672 243.1374707 -244.359375 242.4765625 C-243.7441095 242.12290619 -243.12884399 241.76924988 -242.49493408 241.40487671 C-240.54251813 240.2831505 -238.58453977 239.17172824 -236.625 238.0625 C-221.07052429 229.24635521 -207.23715006 221.02542724 -200.875 203.4375 C-199.89727543 199.57642207 -199.64848678 195.85301999 -199.5625 191.875 C-199.50642578 190.20244141 -199.50642578 190.20244141 -199.44921875 188.49609375 C-200.11268032 177.17933502 -206.47665566 167.10633854 -211.9375 157.5 C-212.66563973 156.20038828 -213.39285834 154.90026003 -214.11914062 153.59960938 C-217.74604509 147.10691027 -217.74604509 147.10691027 -221.54858398 140.71655273 C-223.2324946 137.8232515 -223.74088293 135.79042673 -223.875 132.4375 C-222.875 128.75 -222.875 128.75 -220.875 125.4375 C-215.34087666 122.37055643 -210.66940157 122.00892438 -204.42578125 122.03125 C-203.53191208 122.02041382 -202.63804291 122.00957764 -201.71708679 121.99841309 C-198.87381748 121.96433803 -196.03094592 121.94861004 -193.1875 121.9375 C-168.10513788 121.92067905 -168.10513788 121.92067905 -146.80859375 109.5546875 C-137.45633256 99.57624899 -134.59992531 87.93506074 -134.56640625 74.6171875 C-134.54126528 72.76431951 -134.515867 70.911455 -134.49023438 69.05859375 C-134.46145866 66.17757943 -134.43739698 63.29662497 -134.41870117 60.41552734 C-134.39698312 57.60745466 -134.35756748 54.80003284 -134.31640625 51.9921875 C-134.31629044 51.13785126 -134.31617462 50.28351501 -134.3160553 49.40328979 C-134.22760699 44.02366968 -133.48949499 40.17925533 -130.875 35.4375 C-127.03832106 32.95494304 -124.93574281 32.27880619 -120.40234375 32.95703125 C-114.32281486 34.62962052 -109.03489322 38.03661153 -103.625 41.1875 C-79.74566007 55.53950824 -79.74566007 55.53950824 -52.625 55.3125 C-39.81608768 50.8115029 -31.72624614 42.69046464 -25.125 31.125 C-24.0904232 29.36033724 -23.0552529 27.59602232 -22.01953125 25.83203125 C-21.50084473 24.94080566 -20.9821582 24.04958008 -20.44775391 23.13134766 C-17.9398548 18.83576264 -15.38469141 14.56981545 -12.8125 10.3125 C-12.3597168 9.54897217 -11.90693359 8.78544434 -11.44042969 7.9987793 C-11.01536133 7.295354 -10.59029297 6.59192871 -10.15234375 5.8671875 C-9.78359131 5.25085449 -9.41483887 4.63452148 -9.03491211 3.99951172 C-6.5180245 0.61011014 -3.97096656 0.10259336 0 0 Z " fill="#FD8648" transform="translate(255.875,-0.4375)"/>
<path d="M0 0 C0.78987305 0.19867676 1.57974609 0.39735352 2.39355469 0.60205078 C27.65706189 7.17647225 49.38335406 18.57471459 68 37 C68.84691406 37.78632813 69.69382812 38.57265625 70.56640625 39.3828125 C93.62036844 61.24619448 109.30542396 94.48000602 111.19262695 126.24194336 C111.26707306 129.58056486 111.27822227 132.91068375 111.25 136.25 C111.24178223 137.43803223 111.23356445 138.62606445 111.22509766 139.85009766 C110.72017923 179.65178534 94.81638623 214.82701888 66.73461914 242.75317383 C47.66149174 261.13030816 22.12440698 274.31015703 -4 279 C-5.48306641 279.30550781 -5.48306641 279.30550781 -6.99609375 279.6171875 C-43.06113615 286.06210328 -80.5029083 277.16636114 -110.8203125 257.13671875 C-138.91628311 237.35486189 -157.98098304 210.85305561 -168 178 C-168.3403125 177.03191406 -168.680625 176.06382812 -169.03125 175.06640625 C-179.37196674 142.33470206 -173.28140762 104.14348752 -158.11572266 74.00976562 C-139.98900164 39.52521997 -109.48615962 14.24135581 -72.43359375 2.3203125 C-49.25047602 -4.72538619 -23.61005287 -5.96413728 0 0 Z " fill="#FEC264" transform="translate(287,117)"/>
<path d="M0 0 C1.26457031 -0.05994141 1.26457031 -0.05994141 2.5546875 -0.12109375 C7.11234509 0.86940022 9.1622783 3.96167937 11.59130859 7.68530273 C13.22898685 10.39214282 14.80793433 13.12670451 16.375 15.875 C17.526873 17.85519898 18.68052132 19.83436632 19.8359375 21.8125 C20.39635742 22.77414063 20.95677734 23.73578125 21.53417969 24.7265625 C30.15629748 39.41962512 38.23817791 51.44460043 55.64453125 56.11328125 C58.67297326 56.50912485 61.63283785 56.68397204 64.6875 56.75 C65.80253906 56.78738281 66.91757812 56.82476562 68.06640625 56.86328125 C79.38316498 56.19981968 89.45616146 49.83584434 99.0625 44.375 C100.36211172 43.64686027 101.66223997 42.91964166 102.96289062 42.19335938 C109.45558973 38.56645491 109.45558973 38.56645491 115.84594727 34.76391602 C118.7392485 33.0800054 120.77207327 32.57161707 124.125 32.4375 C127.8125 33.4375 127.8125 33.4375 131.125 35.4375 C134.19194357 40.97162334 134.55357562 45.64309843 134.53125 51.88671875 C134.54208618 52.78058792 134.55292236 53.67445709 134.56408691 54.59541321 C134.59816197 57.43868252 134.61388996 60.28155408 134.625 63.125 C134.64182095 88.20736212 134.64182095 88.20736212 147.0078125 109.50390625 C156.98625101 118.85616744 168.62743926 121.71257469 181.9453125 121.74609375 C183.79818049 121.77123472 185.651045 121.796633 187.50390625 121.82226562 C190.38492057 121.85104134 193.26587503 121.87510302 196.14697266 121.89379883 C198.95504534 121.91551688 201.76246716 121.95493252 204.5703125 121.99609375 C205.85181686 121.99626747 205.85181686 121.99626747 207.15921021 121.9964447 C212.53883032 122.08489301 216.38324467 122.82300501 221.125 125.4375 C223.60755696 129.27417894 224.28369381 131.37675719 223.60546875 135.91015625 C221.93287948 141.98968514 218.52588847 147.27760678 215.375 152.6875 C201.02299176 176.56683993 201.02299176 176.56683993 201.25 203.6875 C206.38622384 218.30413701 215.91704211 225.68606354 228.84033203 233.12060547 C233.16209104 235.6116899 237.45769687 238.14610261 241.75 240.6875 C243.02943481 241.43036255 243.02943481 241.43036255 244.3347168 242.18823242 C255.40888027 248.74151985 255.40888027 248.74151985 256.7890625 253.9375 C256.77617188 254.7625 256.76328125 255.5875 256.75 256.4375 C256.76289062 257.2625 256.77578125 258.0875 256.7890625 258.9375 C255.35861346 264.32271992 250.82858482 266.72483098 246.31640625 269.453125 C244.44386235 270.53776427 242.56736928 271.61560703 240.6875 272.6875 C238.70730102 273.839373 236.72813368 274.99302132 234.75 276.1484375 C233.78835938 276.70885742 232.82671875 277.26927734 231.8359375 277.84667969 C217.14287488 286.46879748 205.11789957 294.55067791 200.44921875 311.95703125 C200.05337515 314.98547326 199.87852796 317.94533785 199.8125 321 C199.77511719 322.11503906 199.73773438 323.23007812 199.69921875 324.37890625 C200.32768247 335.28965649 206.31807676 345.01615897 211.625 354.25 C212.29653129 355.43630697 212.96710842 356.62315457 213.63671875 357.81054688 C215.88802393 361.78965015 218.14857735 365.76286236 220.45141602 369.71240234 C222.58601827 373.37955189 224.03515871 376.12511818 224.125 380.4375 C223.125 384.125 223.125 384.125 221.125 387.4375 C215.53504121 390.55120908 210.80272225 390.85359068 204.4921875 390.80859375 C202.61458162 390.825988 200.73697749 390.84357224 198.859375 390.86132812 C195.93713947 390.87134582 193.01502534 390.87500883 190.09277344 390.87329102 C173.16781543 390.8947985 159.34388135 391.95995442 146.3515625 404.09375 C137.39014569 413.7375082 134.84852947 425.49453736 134.81640625 438.2578125 C134.79126528 440.11068049 134.765867 441.963545 134.74023438 443.81640625 C134.71145866 446.69742057 134.68739698 449.57837503 134.66870117 452.45947266 C134.64698312 455.26754534 134.60756748 458.07496716 134.56640625 460.8828125 C134.56629044 461.73714874 134.56617462 462.59148499 134.5660553 463.47171021 C134.47760699 468.85133032 133.73949499 472.69574467 131.125 477.4375 C127.28832106 479.92005696 125.18574281 480.59619381 120.65234375 479.91796875 C114.57281486 478.24537948 109.28489322 474.83838847 103.875 471.6875 C79.99566007 457.33549176 79.99566007 457.33549176 52.875 457.5625 C38.61622053 462.57297423 31.03814782 471.83913139 23.6875 484.5625 C22.37137242 486.79573717 21.05496876 489.02881166 19.73828125 491.26171875 C19.11518066 492.32696777 18.49208008 493.3922168 17.85009766 494.48974609 C15.71737232 498.13403221 13.56358328 501.76402539 11.375 505.375 C10.80265625 506.33277344 10.2303125 507.29054688 9.640625 508.27734375 C8.125 510.4375 8.125 510.4375 5.125 512.4375 C2.8203125 512.80859375 2.8203125 512.80859375 0.25 512.875 C-0.59304687 512.91496094 -1.43609375 512.95492187 -2.3046875 512.99609375 C-6.96914831 511.98238874 -9.3756744 508.20165794 -11.89208984 504.35058594 C-12.53355957 503.21911133 -13.1750293 502.08763672 -13.8359375 500.921875 C-14.18959381 500.3066095 -14.54325012 499.69134399 -14.90762329 499.05743408 C-16.0293495 497.10501813 -17.14077176 495.14703977 -18.25 493.1875 C-27.06614479 477.63302429 -35.28707276 463.79965006 -52.875 457.4375 C-56.73607793 456.45977543 -60.45948001 456.21098678 -64.4375 456.125 C-65.55253906 456.08761719 -66.66757813 456.05023438 -67.81640625 456.01171875 C-79.13316498 456.67518032 -89.20616146 463.03915566 -98.8125 468.5 C-100.11211172 469.22813973 -101.41223997 469.95535834 -102.71289062 470.68164062 C-109.20558973 474.30854509 -109.20558973 474.30854509 -115.59594727 478.11108398 C-118.4892485 479.7949946 -120.52207327 480.30338293 -123.875 480.4375 C-127.5625 479.4375 -127.5625 479.4375 -130.875 477.4375 C-133.94194357 471.90337666 -134.30357562 467.23190157 -134.28125 460.98828125 C-134.29208618 460.09441208 -134.30292236 459.20054291 -134.31408691 458.27958679 C-134.34816197 455.43631748 -134.36388996 452.59344592 -134.375 449.75 C-134.39182095 424.66763788 -134.39182095 424.66763788 -146.7578125 403.37109375 C-156.45329549 394.28403176 -167.84055739 391.16055811 -180.81640625 391.12890625 C-182.71810221 391.10376032 -184.61979485 391.0783621 -186.52148438 391.05273438 C-189.48591343 391.0239726 -192.4502852 390.99991927 -195.41479492 390.98120117 C-198.29895039 390.95948349 -201.18247203 390.92006071 -204.06640625 390.87890625 C-204.94575333 390.87879044 -205.8251004 390.87867462 -206.73109436 390.8785553 C-212.17624304 390.7915236 -216.08025732 390.09512188 -220.875 387.4375 C-223.35755696 383.60082106 -224.03369381 381.49824281 -223.35546875 376.96484375 C-221.68287948 370.88531486 -218.27588847 365.59739322 -215.125 360.1875 C-200.77299176 336.30816007 -200.77299176 336.30816007 -201 309.1875 C-205.5009971 296.37858768 -213.62203536 288.28874614 -225.1875 281.6875 C-226.95216276 280.6529232 -228.71647768 279.6177529 -230.48046875 278.58203125 C-231.81730713 277.80400146 -231.81730713 277.80400146 -233.18115234 277.01025391 C-237.47673736 274.5023548 -241.74268455 271.94719141 -246 269.375 C-246.76352783 268.9222168 -247.52705566 268.46943359 -248.3137207 268.00292969 C-249.017146 267.57786133 -249.72057129 267.15279297 -250.4453125 266.71484375 C-251.06164551 266.34609131 -251.67797852 265.97733887 -252.31298828 265.59741211 C-254.70315479 263.82253229 -255.77593452 262.0527488 -256.24609375 259.1328125 C-256.26800781 258.28460938 -256.28992188 257.43640625 -256.3125 256.5625 C-256.35246094 255.71945313 -256.39242188 254.87640625 -256.43359375 254.0078125 C-255.41988874 249.34335169 -251.63915794 246.9368256 -247.78808594 244.42041016 C-246.65661133 243.77894043 -245.52513672 243.1374707 -244.359375 242.4765625 C-243.7441095 242.12290619 -243.12884399 241.76924988 -242.49493408 241.40487671 C-240.54251813 240.2831505 -238.58453977 239.17172824 -236.625 238.0625 C-221.07052429 229.24635521 -207.23715006 221.02542724 -200.875 203.4375 C-199.89727543 199.57642207 -199.64848678 195.85301999 -199.5625 191.875 C-199.50642578 190.20244141 -199.50642578 190.20244141 -199.44921875 188.49609375 C-200.11268032 177.17933502 -206.47665566 167.10633854 -211.9375 157.5 C-212.66563973 156.20038828 -213.39285834 154.90026003 -214.11914062 153.59960938 C-217.74604509 147.10691027 -217.74604509 147.10691027 -221.54858398 140.71655273 C-223.2324946 137.8232515 -223.74088293 135.79042673 -223.875 132.4375 C-222.875 128.75 -222.875 128.75 -220.875 125.4375 C-215.34087666 122.37055643 -210.66940157 122.00892438 -204.42578125 122.03125 C-203.53191208 122.02041382 -202.63804291 122.00957764 -201.71708679 121.99841309 C-198.87381748 121.96433803 -196.03094592 121.94861004 -193.1875 121.9375 C-168.10513788 121.92067905 -168.10513788 121.92067905 -146.80859375 109.5546875 C-137.45633256 99.57624899 -134.59992531 87.93506074 -134.56640625 74.6171875 C-134.54126528 72.76431951 -134.515867 70.911455 -134.49023438 69.05859375 C-134.46145866 66.17757943 -134.43739698 63.29662497 -134.41870117 60.41552734 C-134.39698312 57.60745466 -134.35756748 54.80003284 -134.31640625 51.9921875 C-134.31629044 51.13785126 -134.31617462 50.28351501 -134.3160553 49.40328979 C-134.22760699 44.02366968 -133.48949499 40.17925533 -130.875 35.4375 C-127.03832106 32.95494304 -124.93574281 32.27880619 -120.40234375 32.95703125 C-114.32281486 34.62962052 -109.03489322 38.03661153 -103.625 41.1875 C-79.74566007 55.53950824 -79.74566007 55.53950824 -52.625 55.3125 C-39.81608768 50.8115029 -31.72624614 42.69046464 -25.125 31.125 C-24.0904232 29.36033724 -23.0552529 27.59602232 -22.01953125 25.83203125 C-21.50084473 24.94080566 -20.9821582 24.04958008 -20.44775391 23.13134766 C-17.9398548 18.83576264 -15.38469141 14.56981545 -12.8125 10.3125 C-12.3597168 9.54897217 -11.90693359 8.78544434 -11.44042969 7.9987793 C-11.01536133 7.295354 -10.59029297 6.59192871 -10.15234375 5.8671875 C-9.78359131 5.25085449 -9.41483887 4.63452148 -9.03491211 3.99951172 C-6.5180245 0.61011014 -3.97096656 0.10259336 0 0 Z M-0.875 31.4375 C-2.26506586 33.2957819 -2.26506586 33.2957819 -3.6328125 35.71484375 C-4.17679688 36.62169922 -4.72078125 37.52855469 -5.28125 38.46289062 C-6.40564001 40.36796506 -7.52811468 42.27417156 -8.6484375 44.18164062 C-18.26238269 60.18616386 -31.06840535 70.36864001 -49 75.75 C-70.58049005 81.06913487 -87.95729195 74.06082372 -106.73120117 63.61083984 C-108.75682879 62.50217724 -110.80286456 61.45608196 -112.875 60.4375 C-112.88958252 61.16227539 -112.90416504 61.88705078 -112.91918945 62.63378906 C-112.99463772 65.98550498 -113.09097166 69.33632746 -113.1875 72.6875 C-113.21005859 73.82703125 -113.23261719 74.9665625 -113.25585938 76.140625 C-113.84803803 95.090342 -120.27315247 111.09797367 -133.0625 125.125 C-142.56237022 134.04717541 -153.56120871 138.17343473 -165.875 141.4375 C-166.48045654 141.61474609 -167.08591309 141.79199219 -167.7097168 141.97460938 C-170.47228384 142.56518634 -173.12981425 142.65702794 -175.953125 142.75390625 C-177.11328125 142.79580078 -178.2734375 142.83769531 -179.46875 142.88085938 C-180.6753125 142.92017578 -181.881875 142.95949219 -183.125 143 C-184.34703125 143.04318359 -185.5690625 143.08636719 -186.828125 143.13085938 C-189.8436392 143.23687355 -192.85923448 143.33893936 -195.875 143.4375 C-195.36710937 144.36949219 -194.85921875 145.30148438 -194.3359375 146.26171875 C-182.95368234 167.2748994 -174.39794966 186.31464872 -181.48828125 210.4453125 C-187.41303157 228.51558007 -199.00925069 239.70639237 -214.875 249.4375 C-215.926875 250.08460938 -216.97875 250.73171875 -218.0625 251.3984375 C-220.32204784 252.76572071 -222.5893305 254.11450071 -224.875 255.4375 C-223.74196876 258.83659371 -223.3860127 259.00698547 -220.41015625 260.63671875 C-219.69722412 261.03697266 -218.98429199 261.43722656 -218.24975586 261.84960938 C-217.48671143 262.27048828 -216.72366699 262.69136719 -215.9375 263.125 C-198.22628627 273.25728174 -185.78749455 286.32174752 -179.9375 306.25 C-175.41931993 327.67583506 -182.399789 345.07914246 -192.80932617 363.5090332 C-193.88745382 365.46003671 -194.89150731 367.43736944 -195.875 369.4375 C-195.18164551 369.44160889 -194.48829102 369.44571777 -193.77392578 369.44995117 C-169.76629334 369.6980049 -149.426017 372.14198179 -131.60546875 389.578125 C-114.35785408 407.64000474 -113.35490148 428.75794137 -112.875 452.4375 C-112.17665039 452.05295654 -111.47830078 451.66841309 -110.75878906 451.2722168 C-89.51495246 439.62137927 -70.33615755 431.18725395 -45.76953125 438.18359375 C-23.42986107 445.08044133 -11.96600545 462.2445544 -0.875 481.4375 C2.52409371 480.30446876 2.69448547 479.9485127 4.32421875 476.97265625 C4.92459961 475.90325806 4.92459961 475.90325806 5.53710938 474.81225586 C5.95798828 474.04921143 6.37886719 473.28616699 6.8125 472.5 C16.93649063 454.80327911 29.2481103 443.45084691 48.89453125 436.98046875 C68.07031634 432.31245802 84.23336164 437.43435979 101.02539062 446.33935547 C105.02776802 448.43269192 109.07967723 450.42876311 113.125 452.4375 C113.13958252 451.71796143 113.15416504 450.99842285 113.16918945 450.25708008 C113.71913472 425.97981437 115.68913386 405.0600191 134.125 387.4375 C134.8984375 386.61765625 134.8984375 386.61765625 135.6875 385.78125 C151.87025237 369.9356383 175.08193454 369.86396902 196.125 369.4375 C195.74045654 368.74132568 195.35591309 368.04515137 194.9597168 367.32788086 C184.04100513 347.45457158 174.45986632 328.10416965 180.921875 305.02880859 C183.50633826 296.70347446 186.75348704 289.38116309 192.125 282.4375 C192.63417969 281.73753906 193.14335937 281.03757812 193.66796875 280.31640625 C201.82685237 269.98182033 214.76813804 263.68632809 226.125 257.4375 C226.125 256.7775 226.125 256.1175 226.125 255.4375 C224.60132813 254.61958984 224.60132813 254.61958984 223.046875 253.78515625 C204.10205091 243.47514221 188.92347717 231.95937806 181.87109375 210.6484375 C175.06547807 187.29241162 182.27714712 168.79891195 193.38671875 148.41015625 C194.29788572 146.75172771 195.21008111 145.09386165 196.125 143.4375 C195.40546143 143.42291748 194.68592285 143.40833496 193.94458008 143.39331055 C170.15443358 142.85439984 149.20200397 140.94277587 131.6796875 123.22265625 C115.28795874 105.35216297 113.63690085 84.56919657 113.125 61.4375 C108.8613347 62.67747731 105.25010565 64.38616152 101.41772461 66.56079102 C84.67457619 76.01873789 68.4838815 80.42431763 49.375 75.8125 C27.80633843 69.32602554 15.8234028 56.25500936 4.80493164 37.33056641 C4.35625732 36.56921387 3.90758301 35.80786133 3.4453125 35.0234375 C3.04586426 34.3329834 2.64641602 33.6425293 2.23486328 32.93115234 C1.8686084 32.43824707 1.50235352 31.9453418 1.125 31.4375 C0.465 31.4375 -0.195 31.4375 -0.875 31.4375 Z " fill="#020100" transform="translate(255.875,-0.4375)"/>
<path d="M0 0 C0.74150299 0.0012085 1.48300598 0.00241699 2.24697876 0.00366211 C30.25797848 0.12676264 56.17614505 6.6440128 80.6875 20.375 C81.33154785 20.73207031 81.9755957 21.08914062 82.63916016 21.45703125 C91.35692665 26.33880799 99.16643967 31.75508054 106.6875 38.375 C107.51636719 39.08269531 108.34523438 39.79039062 109.19921875 40.51953125 C134.01400052 62.13994551 151.03802175 90.52161395 159.5625 122.25 C159.75368408 122.96148193 159.94486816 123.67296387 160.1418457 124.40600586 C163.0634476 136.07782532 164.02995862 147.74726298 163.9375 159.75 C163.93145752 161.01787354 163.92541504 162.28574707 163.91918945 163.59204102 C163.82310706 172.68027087 163.33132222 181.43097351 161.6875 190.375 C161.46964844 191.56609375 161.25179688 192.7571875 161.02734375 193.984375 C155.64777543 220.91161314 144.09024651 246.82006788 125.6875 267.375 C124.82382812 268.35855469 123.96015625 269.34210938 123.0703125 270.35546875 C112.54830576 282.20142414 101.00744808 291.83318264 87.6875 300.375 C87.10629395 300.74898926 86.52508789 301.12297852 85.92626953 301.50830078 C70.47845555 311.28214396 52.89812835 317.31506891 35.1875 321.5 C34.50558594 321.66886719 33.82367188 321.83773438 33.12109375 322.01171875 C-6.18664642 331.34271501 -50.12058265 321.65230287 -84.07666016 300.81665039 C-95.10745823 293.80570355 -104.90091664 285.41269854 -114.3125 276.375 C-114.87590088 275.83423828 -115.43930176 275.29347656 -116.01977539 274.73632812 C-137.25851238 253.98167318 -150.16653882 225.84541675 -157.3125 197.375 C-157.52519531 196.53839844 -157.73789063 195.70179688 -157.95703125 194.83984375 C-160.37723844 184.6889028 -160.52718812 174.5173254 -160.55273438 164.13916016 C-160.56239372 161.77600258 -160.59347426 159.4137341 -160.625 157.05078125 C-160.69459476 147.0787067 -159.6733297 138.104524 -157.3125 128.375 C-157.11897949 127.50343262 -156.92545898 126.63186523 -156.72607422 125.73388672 C-150.08000807 96.12981972 -135.20686482 70.23312703 -114.3125 48.375 C-113.65507812 47.65441406 -112.99765625 46.93382812 -112.3203125 46.19140625 C-83.99737257 16.21184153 -40.68367404 -0.12338599 0 0 Z M-86.3125 50.375 C-87.1156665 51.01211914 -87.1156665 51.01211914 -87.93505859 51.66210938 C-101.64924781 62.62109518 -112.46261856 75.22864554 -121.3125 90.375 C-121.66296387 90.96893555 -122.01342773 91.56287109 -122.37451172 92.17480469 C-127.98926576 101.80971227 -132.17981276 111.67512783 -135.3125 122.375 C-135.67867432 123.6110498 -135.67867432 123.6110498 -136.05224609 124.87207031 C-146.02458966 159.93632912 -141.08674399 198.66115963 -123.41455078 230.43359375 C-123.05087402 231.07425781 -122.68719727 231.71492187 -122.3125 232.375 C-121.92690918 233.05433594 -121.54131836 233.73367188 -121.14404297 234.43359375 C-115.74693043 243.78655683 -109.80784122 251.58200985 -102.3125 259.375 C-101.508125 260.40625 -100.70375 261.4375 -99.875 262.5 C-95.83175477 267.03632392 -91.09830444 270.6505891 -86.3125 274.375 C-85.45527344 275.04789063 -84.59804687 275.72078125 -83.71484375 276.4140625 C-53.41788998 299.35383745 -15.10015601 308.52051001 22.46972656 303.55200195 C36.12873813 301.42685561 49.12550674 297.11339745 61.6875 291.375 C62.79609375 290.87355469 63.9046875 290.37210937 65.046875 289.85546875 C78.12277791 283.65167926 89.25383099 275.38213537 99.6875 265.375 C100.63109375 264.50617188 101.5746875 263.63734375 102.546875 262.7421875 C122.15501581 244.32396976 133.50504032 220.25786246 140.5 194.625 C140.70713623 193.88145264 140.91427246 193.13790527 141.12768555 192.37182617 C149.98279619 158.26864193 142.02925429 120.47199116 124.59667969 90.49951172 C113.12955133 71.32172809 97.66278945 54.29866161 78.6875 42.375 C78.07326172 41.98618652 77.45902344 41.59737305 76.82617188 41.19677734 C26.70135395 10.00371757 -40.23301502 13.29801933 -86.3125 50.375 Z " fill="#030201" transform="translate(254.3125,93.625)"/>
<path d="M0 0 C4.53200134 0.87586551 7.14333737 4.13176613 9.6328125 7.7890625 C10.46014877 9.09781569 11.27472988 10.41469653 12.078125 11.73828125 C12.51012207 12.44251221 12.94211914 13.14674316 13.38720703 13.87231445 C19.9480852 24.77262317 25.06340637 36.05587128 28.203125 48.42578125 C28.5021875 49.55371094 28.80125 50.68164062 29.109375 51.84375 C31.12221323 60.68719203 31.48387399 69.30081148 31.515625 78.36328125 C31.52110352 79.5126416 31.52658203 80.66200195 31.53222656 81.84619141 C31.40304011 97.15924063 31.40304011 97.15924063 27.140625 103.48828125 C23.67887958 105.77156015 21.53950267 106.01845066 17.484375 106.08984375 C13.98661407 105.07165992 12.48640358 103.22265107 10.203125 100.42578125 C9.69897461 97.02270508 9.69897461 97.02270508 9.85546875 93.1328125 C9.89314778 91.69181528 9.93074229 90.25081584 9.96826172 88.80981445 C9.99724548 88.06253082 10.02622925 87.31524719 10.05609131 86.5453186 C10.54001189 73.33847968 10.44097699 61.07353205 6.203125 48.42578125 C5.98881836 47.78237793 5.77451172 47.13897461 5.55371094 46.47607422 C1.86032559 35.68353987 -3.50519082 25.60884483 -10.00390625 16.24609375 C-12.30295355 12.62972742 -12.48601141 10.63717041 -11.796875 6.42578125 C-9.359375 3.55078125 -9.359375 3.55078125 -6.796875 1.42578125 C-4.96555194 -0.40554181 -2.4449279 0.1353109 0 0 Z " fill="#030201" transform="translate(347.796875,177.57421875)"/>
<path d="M0 0 C3.27371352 2.6724192 4.78236726 4.06474275 5.25390625 8.2578125 C5.03773923 12.22742506 4.45639224 14.43296722 1.9375 17.5625 C-1.88844599 19.43477144 -4.82161996 19.80191132 -9 19 C-11.9375 17.5625 -11.9375 17.5625 -14 15 C-15.04596503 11.9205387 -15.39716892 9.23329061 -15 6 C-11.5652688 -0.49231545 -6.89474424 -2.09210751 0 0 Z " fill="#060402" transform="translate(324,155)"/>
</svg>
